<?xml version='1.0' encoding='utf-8'?>
<svg xmlns="http://www.w3.org/2000/svg" enable-background="new 310.056 -6.6003 604.944 803.0138" version="1.1" viewBox="310.056 -6.6003 604.944 803.0138">
	<path d="m668.71 45.67c19.24-7.46 38.2-17.62 59.26-18.4 13.82-0.9 26.93 5.13 38.21 12.56 9.23 6.26 17.67 13.81 24.55 22.6 7.61 9.76 8.03 22.72 8.78 34.54 0.15 7.13 5.26 13.06 10.98 16.74 6.31 3.13 13.9 4.59 18.55 10.34 4.43 5.69 7.58 12.24 10.84 18.63 5.49 11.62 11.31 23.41 13.32 36.24 0.5 9.74-2.12 19.46-0.51 29.18 2.66 14.99 8.8 29.03 13.53 43.42 2.83 8.67 8.19 16.39 9.9 25.45 2.04 10.53-1.28 21-4.33 30.97-1.54 4.48-1.47 9.35-0.61 13.96 0.11 2.17 0.11 4.35 0.07 6.54-1.1 0.11-2.19 0.2-3.27 0.26-4.21-5.52-7.29-11.79-11.5-17.3 0.35 8.94 2.04 17.76 3.54 26.56 0.68 4.97 3.28 9.32 4.94 13.98 1.62 3.79-2.06 7.21-1.7 11.06 0.06 17.03 1.29 34.03 2.15 51.03-0.1 2.54 1.73 4.54 2.26 6.95-0.54 2.83-2.47 5.19-3 8.04-0.21 3.75 5.84 4.88 4.98 8.8-2.29 4.7-7.53 7.72-8.1 13.26 1.52 3.83 3.26 7.56 5.19 11.19 2.02 3.36 0.03 7.24-0.81 10.64-1.59 5.95-4.47 11.82-3.49 18.14 0.29 5.35 5.16 9.38 4.4 14.91-0.53 16.08-2.61 32.06-3.72 48.11-0.95 7.25-0.48 14.6-1.29 21.86-0.28 6.8-0.7 14.17-5.07 19.78-1.92 3.11-5.33 5.58-5.72 9.43 6.19 2.2 13.67-1.9 19.16 2.64 4.74 3.11 3.99 9.2599 4.97 14.13 2.79 22.07 5.34 44.18 7.68 66.31 1.02 9.29 2.2401 18.57 3.02 27.89 1.08 9.99 2.33 19.97 3 30.01 0.46 3.7 1.03 7.5 0.37 11.22-1.46 4.44-6.77 4.65-10.67 5.1-7 0.2-14.18 0.63-21.01-1.18-3.5-2.01-3.65-6.68-3.88-10.27 1.07-6.34-0.57-12.64-1.12-18.95-2.76-20.97-5.4-41.96-8.67-62.86-0.88-6.25-1.86-12.51-3.54-18.6-16.09-0.93-32.24 0.1-48.34 0.24-11.04 0.86-22.15 0.57-33.15 1.95-6.33 1.54-13.63 4.2-16.28 10.74-2 7.71-2.85 15.7-3.46 23.63-1.7 16.89-2.54 33.91-1.44 50.87 0.07 4.99 1.46 10.01 0.64 14.99-1.74 3.25-6.01 2.41-9.06 3.17-9.08 0.67-18.3 2.02-27.36 0.41-2.59-0.36-5.03-1.89-6.11-4.32-2.37-5.09-0.95-10.79-0.54-16.12 0.31-25.78 3.07-51.43 4.44-77.16 0.94-12.29 1.61-24.61 3.2-36.83 1.07-5.85 7.32-8.2401 11.02-12.19-0.28-1.83-2.71-1.94-4-2.83-5.67-2.23-11.11-5.26-16.92-7.01-10.93 0.67-21.71 2.96-32.65 3.75-13.02 1.09-26.35 2.72-39.23-0.39-14.9-3.87-28.51-11.34-41.87-18.79-2.97-1.92-7.78-0.98-9.44-4.66-0.22-3.32 0.71-6.58 1.01-9.8701 3.21-20.18 7.09-40.25 10.95-60.31 0.81-4.83 3.1-9.2 4.55-13.83 1.54-4.58-0.25-9.43-3.39-12.85-3.16-3.39-7.02-7.19-11.99-7.05-2.45 7.67-1.79 15.82-2.84 23.7-3.48 12.39-8.14 24.43-11.87 36.75-5.83 19.89-16.94 37.59-27.37 55.31-8.5099 14.57-18.79 28.24-25.07 43.99-3.1 6.81-0.45 14.37 2.46 20.75 3.31 7.45 8.32 13.97 12.03 21.19 1.74 4.34-2.48 7.64-4.67 10.84 0.06 0.35 0.1801 1.06 0.2401 1.41 1.94 1.92 4.7599 3.37 5.67 6.09 1.23 8.23 0.78 16.62 0.24 24.9-0.12 7.27-0.7 14.59-2.45 21.67-1.27 5.3-6.5 8.3101-11.18 10.28-3.91 1.76-8.26 1.76-12.45 1.39-4.36-2.52-4.01-8.05-4.79-12.36-0.5-7.0601-1.23-14.09-1.72-21.15-0.72-4.69-1.44-9.5-4-13.6-1.44 0.05-2.99-0.2-4.32 0.49-4.66 2.44-8.18 6.47-11.77 10.22-5.83 6.65-11.21 13.72-16.04 21.13-2.11 2.93-1.69 6.71-1.75 10.12-0.98 1.92-2.05 4.12-4.36 4.63-10.62 3.32-21.86 3.32-32.83 4.32-10.69 0.21-21.39 0.19-32.08-0.02-9.44-0.89-19.09-0.5-28.29-3.05-2.66-0.62-4.76-2.65-5.66-5.2-2.42-6.25-2.05-13.68 1.27-19.52 1.75-3.2 5.59-3.9 8.86-4.4301 8.05-0.99 16.43-0.73 24.09-3.74 7.35-3.14 11.98-10.03 17.04-15.87 17.12-22.04 31.8-46 43.98-71.11 8.69-18.72 14.27-38.68 19.96-58.47 6.76-24.15 12.68-48.53 18.67-72.88 2.44-9.31 4-19 8.38-27.67 3.23-6.53 6.93-12.94 8.6-20.1 3.05-13.44 2.38-27.66 7.43-40.66 6.47-17.17 18.3-31.54 26.71-47.7-10.92-4.67-22.27-8.26-33.49-12.11-4.59-1.32-9.04-3.22-13.77-3.98-2.63 0.88-4.81 3.37-7.77 2.93-5.26-0.88-9.99-4.38-12.35-9.18-1.82-4.12-6.99-3.81-10.73-3.46-6.98 1.03-13.96-0.36-20.95-0.21-10.11-0.21-20.67-1.09-29.73-6.01-7.14-3.87-13.6-8.97-19.29-14.75-1.62-1.7-3.3-3.45-4.24-5.63-1.52-3.94-0.58-8.23-1.17-12.32-1.32-8.97-2.84-17.92-3.77-26.94-0.58-3.75 4.31-7.12 1.47-10.55-7.48-11.99-16.14-23.2-23.88-35.02-4.27-6.5-7.38-13.78-12.46-19.74-1.46-1.73-2.49-3.75-3.4-5.8 0.99-2.62 2.78-4.77 4.48-6.95 8.08-11.78 15.26-24.15 22.72-36.33 2.14-3.11 5.01-7.21 9.34-6.56 1.36-0.17 1.9 1.32 2.68 2.13 4.99 6.72 8.29 15.01 15.08 20.18 5.58 0.74 10.17-3.27 15.17-4.99 1.73-0.66 2.42 1.69 3.24 2.73 2.09 4.27 3.07 9 5.28 13.22 10.39 20.03 20.82 40.03 31.16 60.09 6.92 13.79 14.29 27.39 20.57 41.5 1.5 3.14-2.44 4.52-4.51 5.76-0.29 0.28-0.88 0.84-1.18 1.12 3.67 5.95 7.92 11.56 12.84 16.53 2.13-2.05 3.55-5.36 6.82-5.73 3.51-0.21 7 1.34 9.69 3.51 1.95 2.17 3 4.98 4.74 7.32 6.77 0.44 13.57 0.19 20.36 0.36 13.66-0.18 27.34-0.13 41.01-0.22 9 0.12 18.2-0.52 26.98 1.96 6.93 1.7 13.7 4.88 21.01 4.19 5.58 0.27 9.78-3.81 13.87-6.98 13.28-10.97 25.61-23.02 38.05-34.92 13.6-13.41 27.2-26.83 40.2-40.83 6.85-7.18 13.65-14.45 19.82-22.23 2.96-3.09 2.01-7.88 0.4-11.4-2.2-4.73-5.92-9.4-11.23-10.61-9.24 0.09-17.9 4.07-27.05 4.75-2.31 0.2-4.96-0.04-6.34-2.16-3.1299-4.67-3.06-10.52-4.4399-15.79-2.14-0.49-4.28-0.96-6.41-1.4-0.33-0.58-0.99-1.74-1.32-2.31 0.95-2.05 1.98-4.06 3.02-6.06-2.61-1.59-5.82-2.31-7.96-4.55-0.93-2.79 0.25-5.7 0.32-8.54-4.69-2.23-10.34-3.16-13.66-7.53 0.04-2.06-0.08-4.21 0.87-6.11 3.31-8 8.62-15.37 9.55-24.2 1.98-13.34-1.17-26.83 1.12-40.14 1.28-6 3.11-11.86 4.62-17.81 1.17-4.11-1.06-8.4 0.25-12.46 2.69-4.1897 7.74-5.8297 12.03-7.8697m124.66 82.56c-0.39 4.78 0.05 9.84-2.08 14.29-2.22 4.84-4.11 10.05-7.92 13.9-1.87 0.34-3.71 0.78-5.53 1.25-0.13 3.79-0.4301 7.61-0.16 11.41 1.04 4.22 2.79 8.23 4.12 12.37 0.41-0.02 1.24-0.06 1.65-0.08 0.52-7.39 0.6-15.19 4.22-21.87 3.02-5.66 7.34-10.48 11.56-15.27 2.38-2.68 6.43-5.19 5.23-9.38-1.25-4.83-6.71-6.4-11.09-6.62m-129.89 246.16c-10.32 4.69-20.35 9.97-30.24 15.49 0.09 0.29 0.28 0.87 0.37 1.16 11.84 5.21 23.65 10.52 35.35 16.03 7.94 3.82 15.96 7.61 23.09 12.85 6.93 4.75 13.2 10.42 20.31 14.92-0.2-3.26-0.76-6.49-0.77-9.76 2.6-1.89 4.91-4.15 6.97-6.61-2.92-0.31-6.71 1.19-8.89-1.43-1.18-3.49 1.83-6.58 2.01-10.01 0.28-4.97-0.29-10.75-4.19-14.29-6.28-3.61-14.32-3.33-20.04-8.09-4.97-3.88-5.88-10.97-11.25-14.45-4.49 0.48-8.61 2.46-12.72 4.19z" stroke="#000" stroke-width=".0938"/>
</svg>